<svg width="53.41" height="17.87" viewBox="0 0 73 25" fill="none" xmlns="http://www.w3.org/2000/svg"><path fill-rule="evenodd" clip-rule="evenodd" d="M18.004 9.214H9.506v2.538h6.027c-.298 3.559-3.24 5.076-6.017 5.076-3.553 0-6.654-2.813-6.654-6.756 0-3.842 2.956-6.8 6.662-6.8 2.859 0 4.544 1.834 4.544 1.834l1.765-1.84S13.567.727 9.433.727c-5.263 0-9.335 4.47-9.335 9.3 0 4.731 3.83 9.345 9.47 9.345 4.96 0 8.59-3.42 8.59-8.476 0-1.066-.154-1.683-.154-1.683v.001zm1.188 4.353c0-3.2 2.5-5.943 5.987-5.943 2.867 0 5.975 2.044 5.975 6.013 0 3.463-2.672 5.972-5.934 5.972-3.604 0-6.028-2.795-6.028-6.042zm9.362.054c0-2.248-1.625-3.644-3.34-3.644-1.927 0-3.408 1.55-3.408 3.626 0 2.122 1.5 3.653 3.4 3.653 1.73 0 3.348-1.435 3.348-3.635zm3.657-.054c0-3.2 2.5-5.943 5.987-5.943 2.867 0 5.975 2.044 5.975 6.013 0 3.463-2.672 5.972-5.934 5.972-3.603 0-6.028-2.795-6.028-6.042zm9.362.054c0-2.248-1.626-3.644-3.34-3.644-1.927 0-3.408 1.55-3.408 3.626 0 2.122 1.5 3.653 3.4 3.653 1.73 0 3.348-1.435 3.348-3.635zm3.657-.01c0-3.166 2.517-5.987 5.717-5.987 1.394 0 2.444.542 3.211 1.375V7.984h2.497v10.768c0 4.23-2.426 6.248-5.608 6.248-2.91 0-4.544-1.802-5.356-3.53l2.288-.962c.318.772 1.23 2.133 3.049 2.133 1.883 0 3.13-1.238 3.13-3.305v-1.182c-.666.778-1.569 1.456-3.266 1.456-2.745 0-5.662-2.392-5.662-5.999zm9.13.013c0-2.303-1.612-3.651-3.18-3.651h-.001c-1.68 0-3.329 1.372-3.329 3.673 0 2.214 1.588 3.609 3.294 3.609 1.608 0 3.216-1.29 3.216-3.631zm7.361-.016c0-3.567 2.535-5.984 5.555-5.984 2.381 0 4.18 1.598 4.952 3.511l.415.977-7.985 3.335c.477.893 1.246 1.816 2.92 1.816 1.49 0 2.384-.816 2.918-1.65l2.059 1.378c-.923 1.243-2.47 2.63-4.99 2.63-3.018 0-5.844-2.238-5.844-6.013zm7.862-2.4c-.332-.698-1.115-1.28-2.203-1.28-1.724 0-3.359 1.787-3.129 3.523l5.332-2.243zM58.25 19.252h2.622V1.59H58.25v17.663z" fill="#fff"/></svg>