<svg width="70" height="14" viewBox="0 0 96 20" fill="none" xmlns="http://www.w3.org/2000/svg"><path d="M3.884 12.894c0 1.092.24 1.93.553 2.438.41.664 1.023.946 1.648.946.806 0 1.543-.2 2.963-2.165 1.139-1.575 2.48-3.785 3.382-5.17l1.528-2.348c1.061-1.63 2.29-3.443 3.698-4.672 1.15-1.002 2.39-1.56 3.639-1.56 2.096 0 4.092 1.215 5.62 3.493 1.673 2.495 2.484 5.637 2.484 8.88 0 1.928-.38 3.345-1.026 4.464-.625 1.082-1.843 2.163-3.89 2.163v-3.085c1.753 0 2.19-1.612 2.19-3.456 0-2.628-.612-5.545-1.962-7.629-.958-1.478-2.2-2.381-3.565-2.381-1.477 0-2.666 1.114-4.002 3.1-.71 1.056-1.44 2.342-2.258 3.793l-.901 1.597c-1.811 3.21-2.27 3.941-3.175 5.148-1.586 2.113-2.941 2.913-4.725 2.913-2.116 0-3.454-.916-4.282-2.296-.677-1.126-1.01-2.602-1.01-4.284l3.09.11z" fill="#fff"/><path d="M3.23 4.074C4.647 1.89 6.69.364 9.035.364c1.358 0 2.708.401 4.118 1.552 1.542 1.259 3.185 3.33 5.235 6.746l.735 1.225c1.775 2.957 2.785 4.478 3.375 5.195.76.921 1.293 1.196 1.984 1.196 1.754 0 2.192-1.612 2.192-3.456l2.725-.086c0 1.928-.38 3.345-1.026 4.464-.625 1.082-1.843 2.163-3.89 2.163-1.274 0-2.402-.276-3.65-1.453-.959-.903-2.08-2.508-2.942-3.95l-2.566-4.285c-1.287-2.151-2.468-3.755-3.151-4.48-.735-.782-1.68-1.725-3.188-1.725-1.22 0-2.257.857-3.125 2.167L3.23 4.074z" fill="#fff"/><path d="M8.986 3.47c-1.22 0-2.257.857-3.125 2.167-1.226 1.851-1.977 4.609-1.977 7.257 0 1.092.24 1.93.553 2.438l-2.634 1.735c-.677-1.126-1.01-2.602-1.01-4.284 0-3.059.84-6.247 2.437-8.709C4.647 1.89 6.69.364 9.036.364l-.05 3.106zM35.406.965h3.574l6.077 10.994L51.135.965h3.497v18.064h-2.916V5.184l-5.33 9.588H43.65l-5.329-9.588V19.03h-2.915V.965zM63.767 7.7c-2.09 0-3.35 1.574-3.651 3.523h7.096C67.066 9.215 65.908 7.7 63.767 7.7zm-6.542 4.633c0-4.1 2.65-7.085 6.593-7.085 3.879 0 6.195 2.947 6.195 7.304v.8h-9.897c.35 2.12 1.757 3.549 4.025 3.549 1.81 0 2.941-.552 4.013-1.562l1.55 1.897c-1.46 1.342-3.316 2.116-5.666 2.116-4.268 0-6.813-3.113-6.813-7.02zm16.323-4.374h-2.684V5.57h2.684V1.623h2.813v3.948h4.078V7.96H76.36v6.05c0 2.067.66 2.801 2.284 2.801.741 0 1.166-.063 1.794-.168v2.362a8.38 8.38 0 01-2.336.322c-3.037 0-4.555-1.66-4.555-4.98V7.958zm18.736 2.322c-.565-1.427-1.825-2.477-3.677-2.477-2.408 0-3.948 1.708-3.948 4.49 0 2.713 1.418 4.503 3.832 4.503 1.898 0 3.253-1.104 3.793-2.478v-4.038zm2.813 8.748h-2.761v-1.884c-.772 1.11-2.177 2.207-4.451 2.207-3.66 0-6.104-3.063-6.104-7.058 0-4.033 2.503-7.046 6.259-7.046 1.856 0 3.312.742 4.296 2.052V5.571h2.761V19.03z" fill="#fff"/></svg>