<svg width="53.64" height="14.37" viewBox="0 0 74 20" fill="none" xmlns="http://www.w3.org/2000/svg"><path d="M73.495.15c-.036.062-.08.133-.108.196-1.242 2.955-2.484 5.92-3.726 8.875a.414.414 0 00-.009.357l3.753 9.83c.027.063.045.125.081.214-.324-.044-.612-.08-.9-.125-.792-.125-1.575-.259-2.367-.384-.135-.017-.189-.089-.234-.205-.675-1.741-1.36-3.482-2.043-5.232a3.478 3.478 0 00-.1-.241c-.044.098-.071.152-.098.214-.693 1.598-1.386 3.188-2.07 4.786-.063.152-.135.178-.297.16-.756-.098-1.512-.187-2.278-.276-.26-.027-.513-.063-.8-.098.071-.161.125-.304.188-.447 1.224-2.768 2.449-5.536 3.682-8.303a.423.423 0 00.009-.375c-1.152-2.911-2.295-5.83-3.43-8.76-.027-.062-.045-.133-.08-.214.071 0 .125-.009.18-.009h2.934c.135 0 .189.045.234.161.62 1.59 1.242 3.17 1.863 4.76.027.062.054.115.09.213.045-.089.072-.151.099-.214.666-1.58 1.332-3.16 1.989-4.75.054-.134.117-.179.261-.179h3.168a.09.09 0 01.01.045zM3.748 8.65v10.553c-1.044.143-2.07.277-3.105.42V.122h2.709c.144 0 .198.044.243.169 1.278 3.536 2.556 7.08 3.834 10.625a.645.645 0 00.108.205V.132h3.079v18.25c-.261.035-.522.088-.793.115-.774.09-1.539.17-2.313.26-.17.017-.252-.019-.306-.188-1.107-3.232-2.223-6.464-3.33-9.697-.027-.08-.054-.151-.081-.232-.018.01-.027.01-.045.01zm17.038 1.615c-.549 0-1.08-.009-1.62 0-.774.01-1.539.027-2.313.036-.117 0-.18.018-.18.16v4.286c0 .036.009.072.009.125 1.81-.116 3.6-.223 5.418-.339.01.09.018.16.018.223 0 .84 0 1.679.01 2.51 0 .169-.064.214-.217.223-1.134.08-2.277.17-3.41.258-1.315.108-2.63.206-3.934.313a27.2 27.2 0 01-.927.062V.132h8.478c0 .062.01.124.01.187v2.616c0 .17-.055.205-.217.205-1.665-.009-3.33 0-4.995 0-.243 0-.243 0-.243.232v3.893c1.377-.018 2.736-.035 4.104-.062.01 1.035.01 2.035.01 3.062zM44.144.131V3.15H38.59v3.91h4.176c.01.081.01.135.01.197 0 .875-.01 1.76.008 2.634 0 .179-.063.205-.225.205-1.242-.008-2.493 0-3.735 0h-.252v6.911h-2.997V.122c2.862.01 5.706.01 8.569.01zM24.135 3.15V.13h9.424v3.02H30.38v14.054h-3.06V3.417c0-.268 0-.268-.279-.268h-2.907zM46.115.131h3.033v14.224c1.755.098 3.492.187 5.23.276v2.982c-2.746-.133-5.5-.276-8.263-.41V.13zM59.994 18.06c-.999-.072-1.99-.152-2.988-.223V.13h2.988v17.93z" fill="#fff"/></svg>