<svg width="82.42" height="16" fill="none" xmlns="http://www.w3.org/2000/svg" viewBox="0 0 631.316 122.557"><path d="M61.193 122.185a60.899 60.899 0 1149.847-25.753 60.582 60.582 0 01-49.847 25.753zm.15-107.88A46.95 46.95 0 1088.389 22.9a46.967 46.967 0 00-27.046-8.593zm98.642 87.937V75.908h11.338c21.091 0 33.77-11.826 33.77-29.382 0-16.58-12.8-26.211-31.332-26.211h-27.43v81.927zm13.167-69.736c10.85 0 18.165 4.999 18.165 15.605 0 9.754-8.168 15.606-18.897 15.606h-12.435v-31.21zm221.397 41.086c0-16.947-12.801-29.748-29.747-29.748a29.584 29.584 0 00-29.626 29.992c0 17.068 12.314 29.503 29.626 29.503a29.329 29.329 0 0029.747-29.747zm-46.45 0c0-9.753 7.198-17.597 16.703-17.312 10.508.314 17.044 7.628 16.824 17.312-.221 9.75-7.315 17.312-16.824 17.312-9.51 0-16.703-7.559-16.703-17.312zm174.95 3.413a33.445 33.445 0 00.365-5.973c0-15.971-12.191-27.188-27.675-27.188a29.145 29.145 0 00-29.503 29.504c0 17.434 11.582 29.991 29.138 29.991 11.825 0 21.7-5.608 25.846-13.41L511.1 84.32c-2.681 4.388-8.411 7.436-14.873 7.436-9.022 0-15.361-5.486-16.702-14.752zm-42.793-9.875c1.707-7.558 7.315-12.191 15.118-12.191 7.924 0 13.898 4.998 14.63 12.191zM320.912 44.942l-15.85 40.841-14.141-40.842h-14.752l21.213 57.301-8.778 20.116h14.02l32.308-77.417zm310.032.243a20.149 20.149 0 00-5.608-.731c-5.608 0-11.948 3.17-14.63 8.656v-8.169h-12.923v57.301h12.923v-30.6c0-10.607 7.071-14.997 14.386-14.997a22.91 22.91 0 015.73.61l.122-12.07zm-42.67 31.82a33.445 33.445 0 00.365-5.973c0-15.971-12.191-27.188-27.675-27.188a29.145 29.145 0 00-29.503 29.504c0 17.434 11.582 29.991 29.138 29.991 11.826 0 21.7-5.608 25.846-13.41l-10.12-5.608c-2.681 4.388-8.411 7.436-14.873 7.436-9.022 0-15.361-5.486-16.702-14.752zM545.48 67.13c1.707-7.558 7.315-12.191 15.118-12.191 7.924 0 13.898 4.998 14.63 12.191zm-289.794 6.34a17.758 17.758 0 01-18.166 18.165c-9.997 0-16.702-7.802-16.702-18.165a18.216 18.216 0 0117.922-18.044c10.119 0 16.946 7.803 16.946 18.044zm201.77-3.901c0-15.971-7.802-25.725-22.432-25.725-7.68 0-14.752 3.292-18.653 8.535v-7.437h-13.045v57.3h13.045V71.154c0-9.632 6.95-15.728 15.24-15.728s12.679 5.609 12.679 15.118v31.698h13.167V69.57zM255.688 44.94v7.437c-3.78-4.998-9.875-8.534-19.019-8.534-15.849 0-29.016 14.02-29.016 30.48 0 16.58 11.338 29.015 26.578 29.015 9.875 0 17.312-3.535 21.457-9.387v8.29h12.801v-57.3z" fill="#fff"/></svg>