<svg width="53.01" height="12.69" viewBox="0 0 73 18" fill="none" xmlns="http://www.w3.org/2000/svg"><path fill-rule="evenodd" clip-rule="evenodd" d="M9.252.243H3.576c-.388 0-.719.253-.78.596L.502 13.86c-.046.257.177.488.468.488h2.71c.388 0 .719-.252.78-.596l.618-3.512c.06-.344.391-.596.78-.596h1.796c3.739 0 5.897-1.62 6.46-4.827.254-1.403.01-2.506-.724-3.278C12.583.692 11.152.243 9.252.243zM9.907 5c-.31 1.822-1.867 1.822-3.371 1.822h-.857l.601-3.403c.036-.205.235-.357.467-.357h.393c1.025 0 1.992 0 2.491.523.298.312.39.775.276 1.415zm15.839.176h-2.68c-.229 0-.426.152-.461.359l-.12.685-.186-.249c-.58-.769-1.875-1.026-3.167-1.026-2.962 0-5.492 2.049-5.985 4.922-.256 1.433.109 2.804.999 3.76.817.879 1.986 1.245 3.376 1.245 2.387 0 3.71-1.401 3.71-1.401l-.119.68c-.045.26.175.493.46.493h2.415c.384 0 .708-.254.768-.6l1.45-8.377c.045-.257-.174-.491-.46-.491zm-3.737 4.763c-.258 1.398-1.474 2.337-3.024 2.337-.778 0-1.4-.228-1.8-.66-.396-.43-.547-1.04-.42-1.72.241-1.386 1.477-2.355 3.003-2.355.762 0 1.38.23 1.788.666.408.44.57 1.055.453 1.732zm18.587-4.994h-2.733a.826.826 0 00-.654.306l-3.769 4.902-1.597-4.71c-.1-.295-.409-.498-.758-.498H28.4c-.326 0-.553.282-.449.553l3.01 7.8-2.83 3.526c-.222.278.002.66.386.66h2.73a.823.823 0 00.648-.299l9.09-11.584c.217-.277-.007-.656-.39-.656zM49.255.243h-5.677c-.387 0-.718.253-.778.596L40.504 13.86c-.046.257.177.488.466.488h2.914c.27 0 .502-.176.544-.417l.652-3.691c.06-.344.39-.596.778-.596h1.796c3.74 0 5.897-1.62 6.461-4.827.256-1.403.01-2.506-.724-3.278C52.585.692 51.155.243 49.255.243zM49.91 5c-.31 1.822-1.865 1.822-3.371 1.822h-.856l.602-3.403c.036-.205.233-.357.466-.357h.393c1.024 0 1.992 0 2.492.523.298.312.388.775.274 1.415zm15.836.176h-2.68c-.23 0-.425.152-.46.359l-.118.685-.188-.249c-.58-.769-1.874-1.026-3.165-1.026-2.963 0-5.492 2.049-5.985 4.922-.255 1.433.108 2.804.998 3.76.819.879 1.986 1.245 3.377 1.245 2.386 0 3.71-1.401 3.71-1.401l-.12.68c-.045.26.175.493.462.493h2.414c.382 0 .708-.254.768-.6l1.45-8.377c.044-.257-.176-.491-.463-.491zm-3.737 4.763c-.257 1.398-1.474 2.337-3.024 2.337-.777 0-1.4-.228-1.8-.66-.396-.43-.545-1.04-.42-1.72.242-1.386 1.477-2.355 3.003-2.355.761 0 1.38.23 1.788.666.41.44.572 1.055.453 1.732zm7.04-9.338l-2.258 13.26c-.044.257.171.488.452.488h2.27c.377 0 .697-.252.755-.596L72.494.733c.044-.258-.171-.49-.452-.49H69.5c-.225.001-.418.152-.453.358z" fill="#fff"/></svg>