<svg width="33.13" height="13.8" viewBox="0 0 46 20" fill="none" xmlns="http://www.w3.org/2000/svg"><path fill-rule="evenodd" clip-rule="evenodd" d="M.5 18.346h6.577c-.564-.285-.787-.783-.614-1.325l.62-1.918c.364-1.125.728-2.25 1.09-3.375.031-.098.073-.124.176-.113.285.025.568.049.853.057a15.93 15.93 0 002.645-.144 11.834 11.834 0 002.557-.643c2.114-.808 3.654-2.186 4.478-4.263.287-.723.496-1.463.518-2.246.017-.587-.075-1.15-.34-1.682-.375-.75-.99-1.263-1.75-1.619C16.4.65 15.428.49 14.42.49H6.318c-.04 0-.077.002-.11.004.036.04.072.078.108.115.073.077.144.151.202.236.223.327.208.684.092 1.042l-.9 2.786c-1.308 4.055-2.616 8.11-3.92 12.166a2.434 2.434 0 01-.832 1.195c-.1.08-.209.15-.317.22-.047.03-.095.061-.141.093zm8.193-8.11a2.272 2.272 0 00-.033-.008l.226-.7.08-.246c.786-2.429 1.574-4.857 2.357-7.286.032-.1.072-.14.186-.136.167.005.334.005.501.006.184 0 .368 0 .552.007.425.017.83.11 1.188.349.417.278.627.678.72 1.148.111.57.054 1.136-.066 1.697-.22 1.014-.549 1.988-1.084 2.888-.454.766-1.04 1.412-1.844 1.848a4.116 4.116 0 01-2.695.453.513.513 0 01-.088-.02z" fill="#fff"/><path d="M45.504 1.307c-.25.802-.499 1.596-.75 2.404a4.133 4.133 0 01-.169-.13c-.663-.532-1.38-.972-2.182-1.261a4.999 4.999 0 00-2.115-.305c-.766.06-1.469.318-2.123.71-.865.518-1.57 1.215-2.18 2.005-1.053 1.367-1.804 2.89-2.32 4.529a22.73 22.73 0 00-.763 3.065c-.127.756-.197 1.518-.155 2.286.037.67.16 1.324.499 1.919.405.71 1.027 1.11 1.828 1.247.468.08.937.057 1.403-.024.083-.013.123-.052.147-.13.67-2.136 1.341-4.27 2.014-6.406.205-.653-.005-1.191-.6-1.537-.055-.033-.112-.061-.193-.107h7.099c-.096.044-.175.076-.252.113-.663.307-1.086.808-1.304 1.507-.655 2.09-1.331 4.174-1.984 6.266a.77.77 0 01-.472.527c-1.148.507-2.334.88-3.573 1.089-.792.135-1.593.19-2.397.154-1.33-.056-2.6-.355-3.785-.975-.895-.468-1.536-1.185-1.992-2.075-.365-.714-.571-1.476-.685-2.267a10.156 10.156 0 01-.079-2.029 12.883 12.883 0 011.036-4.39c1.272-2.958 3.46-4.98 6.435-6.185.86-.348 1.76-.557 2.68-.688a13.998 13.998 0 012.848-.1c1.372.087 2.712.35 4.023.764a.306.306 0 01.061.024z" fill="#fff"/><path fill-rule="evenodd" clip-rule="evenodd" d="M23.899 15.11l.052-.072a2.818 2.818 0 00.575-1.564c.018-.35-.14-.627-.453-.843h2.405c-.091 1.412-.716 2.583-1.797 3.578 1.344 1.234 2.893 2.12 4.621 2.78h-.125c-1.47 0-2.937 0-4.406.002a.47.47 0 01-.298-.085c-.428-.324-.856-.648-1.28-.975a2.633 2.633 0 01-.276-.242c-.064-.065-.11-.056-.181-.008a10.77 10.77 0 01-2.243 1.13c-.854.311-1.732.471-2.65.417-.89-.052-1.733-.244-2.456-.767-.794-.575-1.252-1.332-1.357-2.274-.17-1.533.414-2.76 1.684-3.71.673-.503 1.43-.862 2.227-1.147.437-.158.879-.305 1.32-.452.083-.028.11-.063.106-.147a7.379 7.379 0 01.25-2.408c.22-.795.572-1.526 1.183-2.127.693-.68 1.552-1.065 2.533-1.201.69-.096 1.364-.033 2 .242.708.304 1.23.776 1.404 1.52.15.648-.028 1.24-.403 1.787-.39.566-.92.996-1.504 1.372-.652.418-1.362.733-2.073 1.047l-.218.097-.108.049c-.08.037-.162.073-.244.106-.062.026-.08.057-.069.124.14.832.419 1.62.845 2.358.186.324.39.642.592.96.099.154.197.307.293.462l.05-.008zm-4.285-2.848a.61.61 0 01-.027.007.121.121 0 00-.028.01c-.67.3-1.28.685-1.794 1.193-.634.627-1.012 1.345-.884 2.242.076.533.307.985.779 1.303.546.367 1.17.463 1.82.398.81-.082 1.553-.361 2.267-.724.021-.01.04-.023.06-.036.01-.007.02-.014.032-.02-1.023-1.334-1.74-2.796-2.225-4.373zm2.312-2.273a.752.752 0 00-.039.012 9.337 9.337 0 00-.01-.122 4.44 4.44 0 01-.015-.192c-.048-.886.07-1.746.499-2.548.229-.433.535-.804.988-1.05.216-.117.445-.182.692-.143.453.069.627.337.597.776-.032.46-.229.868-.488 1.251-.519.767-1.199 1.386-1.993 1.896a1.643 1.643 0 01-.154.086l-.043.022a.164.164 0 01-.034.012z" fill="#fff"/></svg>